<?xml version="1.0" encoding="iso-8859-1"?>
<!-- Generator: Adobe Illustrator 16.2.0, SVG Export Plug-In . SVG Version: 6.00 Build 0)  -->
<!DOCTYPE svg PUBLIC "-//W3C//DTD SVG 1.1//EN" "http://www.w3.org/Graphics/SVG/1.1/DTD/svg11.dtd">
<svg version="1.1" id="&#x56FE;&#x5C42;_1" xmlns="http://www.w3.org/2000/svg" xmlns:xlink="http://www.w3.org/1999/xlink" x="0px"
	 y="0px" width="146.941px" height="150.731px" viewBox="0 0 146.941 150.731" style="enable-background:new 0 0 146.941 150.731;"
	 xml:space="preserve">
<path style="fill:none;stroke:#00A199;stroke-width:6;stroke-linecap:square;stroke-miterlimit:10;" d="M128.603,16.345v96.859
	c0,0-7.228,0.055-25.623,0.055s-28.432,9.696-28.432,9.696s-10.393-9.694-28.431-9.694c-18.037,0-26.266,0-26.266,0l0.048-96.816
	c0,0,5.431,0,26.285,0c20.854,0,28.363,13.657,28.363,13.657S82.752,16.35,99.224,16.35
	C115.696,16.35,128.603,16.345,128.603,16.345"/>
<path style="fill:none;stroke:#00A199;stroke-width:8;stroke-miterlimit:10;" d="M142.197,26.536l-0.363,100.36
	c0,0-19.778,0.362-36.978,0.362s-30.04,12.173-30.04,12.173s-16.629-14.736-39.16-14.736c-22.53,0-28.948-0.086-28.948-0.086
	l-0.36-98.004"/>
<g>
	<path style="fill:#F29600;" d="M54.451,49.823v3.095h6.258v2.338h-6.258v4.332h2.579V56.94h2.373v2.647h1.994v2.338h-9.972
		c-0.241,0.756-0.55,1.547-0.928,2.27h9.593c-0.86,2.682-1.788,4.848-2.888,6.602l4.195-0.619l0.309,2.338l-5.467,0.825v4.194
		c0,2.029-1.65,3.679-3.748,3.679h-3.025v-2.338h3.025c0.756,0,1.375-0.584,1.375-1.341v-3.851l-8.011,1.203l-0.31-2.338l8.39-1.238
		c1.272-1.616,2.201-3.197,2.854-4.78h-7.771c-0.722,0.963-1.547,1.892-2.476,2.717l-1.513-1.788
		c1.789-1.616,3.198-3.542,3.955-5.536h-3.782v-2.338h6.911v-4.332H45.89v-2.338h6.224v-3.095H54.451z M63.804,57.319l5.329,9.49
		c1.272-3.06,2.373-6.636,3.267-10.9H61.672l0.894-5.708l2.373,0.378l-0.481,2.992h11.828v2.337h-1.548
		c-1.101,5.398-2.51,9.8-4.16,13.479l5.983,10.624l-2.029,1.169l-5.226-9.284c-2.063,3.886-4.47,6.876-7.048,9.387l-1.651-1.65
		c2.682-2.647,5.192-5.845,7.324-10.177l-6.154-11.003L63.804,57.319z"/>
	<path style="fill:#F29600;" d="M83.476,58.144v1.41c0,8.045-0.757,15.3-1.616,21.18l-2.338-0.378
		c0.859-5.879,1.616-13.065,1.616-20.801v-1.41H83.476z M88.015,49.789v4.367h5.604v2.338h-5.604v24.791h-2.339V56.494h-5.604
		v-2.338h5.604v-4.367H88.015z M92.621,58.006v22.797H90.25V58.006H92.621z M95.337,54.086h10.728v-4.332h2.373v4.332h2.407v2.338
		h-2.407v20.596c0,2.407-1.855,4.298-4.058,4.298h-2.269V78.98h2.269c0.93,0,1.685-0.894,1.685-1.959V56.425h-3.024
		c-1.101,9.112-3.335,16.985-6.671,23.656l-2.098-1.066c3.198-6.361,5.262-13.891,6.396-22.59h-5.331V54.086z"/>
</g>
</svg>
