<?xml version="1.0" encoding="iso-8859-1"?>
<!-- Generator: Adobe Illustrator 16.2.0, SVG Export Plug-In . SVG Version: 6.00 Build 0)  -->
<!DOCTYPE svg PUBLIC "-//W3C//DTD SVG 1.1//EN" "http://www.w3.org/Graphics/SVG/1.1/DTD/svg11.dtd">
<svg version="1.1" id="&#x56FE;&#x5C42;_1" xmlns="http://www.w3.org/2000/svg" xmlns:xlink="http://www.w3.org/1999/xlink" x="0px"
	 y="0px" width="146.941px" height="150.731px" viewBox="0 0 146.941 150.731" style="enable-background:new 0 0 146.941 150.731;"
	 xml:space="preserve">
<g>
	
		<rect x="5.5" y="27" style="fill:none;stroke:#00A199;stroke-width:8;stroke-linecap:round;stroke-linejoin:round;stroke-miterlimit:10;" width="121" height="117"/>
	<g>
		<path style="fill:#00A199;" d="M108.631,10.939L37.307,82.268c4.101,3.207,9.252,3.773,12.583,1.354l65.709-65.712L108.631,10.939
			z"/>
		<path style="fill:#25B3A0;" d="M132.193,34.499L115.599,17.91L49.89,83.622l0.009-0.003c-0.024,0.037-0.036,0.067-0.055,0.097
			c0.027-0.018,0.061-0.048,0.088-0.07c-2.71,3.716-1.695,9.714,2.553,13.969c4.264,4.252,10.251,5.264,13.973,2.553
			c-0.021,0.03-0.055,0.063-0.073,0.091c0.033-0.021,0.067-0.03,0.097-0.052l-0.006,0.006L132.193,34.499z"/>
		<path style="fill:#00A199;" d="M66.475,100.213c-2.419,3.328-1.841,8.482,1.363,12.586l71.329-71.327l-6.974-6.974L66.475,100.213
			z"/>
		<path style="fill:#FFFFFF;" d="M67.855,112.816c-3.222-4.104-3.8-9.266-1.381-12.604l0.006-0.006
			c-0.029,0.021-0.063,0.031-0.097,0.052c0.019-0.027,0.052-0.061,0.073-0.091c-3.722,2.711-9.709,1.699-13.973-2.553
			c-4.248-4.255-5.263-10.253-2.553-13.969c-0.027,0.021-0.061,0.052-0.088,0.07c0.019-0.03,0.03-0.061,0.055-0.097l-0.009,0.003
			c-3.337,2.425-8.501,1.847-12.606-1.372l0.145,30.428L67.855,112.816z"/>
		<path style="fill:#F29600;" d="M37.353,97.736l0.075,14.941l14.933,0.066c-1.959-2.865-4.215-5.623-6.802-8.203
			C42.977,101.957,40.221,99.699,37.353,97.736z"/>
		<g>
			<polygon style="fill:#0A2F3E;" points="108.719,10.851 115.692,17.822 122.854,10.654 115.887,3.687 			"/>
			
				<rect x="115.839" y="17.468" transform="matrix(-0.7071 -0.7071 0.7071 -0.7071 201.8399 128.6722)" style="fill:#2A8F7B;" width="23.46" height="10.132"/>
			<polygon style="fill:#0A2F3E;" points="132.281,34.411 139.252,41.388 146.42,34.217 139.445,27.246 			"/>
		</g>
	</g>
</g>
</svg>
